<svg width="1280" height="360" viewBox="0 0 1280 360" fill="none" xmlns="http://www.w3.org/2000/svg">
  <defs>
    <linearGradient id="bg" x1="24" y1="20" x2="1240" y2="340" gradientUnits="userSpaceOnUse">
      <stop stop-color="#061523"/>
      <stop offset="0.48" stop-color="#102A43"/>
      <stop offset="1" stop-color="#3B1768"/>
    </linearGradient>
    <linearGradient id="accent" x1="72" y1="74" x2="1188" y2="300" gradientUnits="userSpaceOnUse">
      <stop stop-color="#2DE2E6"/>
      <stop offset="0.5" stop-color="#4FA8FF"/>
      <stop offset="1" stop-color="#B06CFF"/>
    </linearGradient>
    <radialGradient id="cyanGlow" cx="0" cy="0" r="1" gradientUnits="userSpaceOnUse" gradientTransform="translate(985 175) rotate(90) scale(205)">
      <stop stop-color="#00D9FF" stop-opacity="0.22"/>
      <stop offset="1" stop-color="#00D9FF" stop-opacity="0"/>
    </radialGradient>
    <radialGradient id="purpleGlow" cx="0" cy="0" r="1" gradientUnits="userSpaceOnUse" gradientTransform="translate(1190 70) rotate(90) scale(180)">
      <stop stop-color="#A855F7" stop-opacity="0.32"/>
      <stop offset="1" stop-color="#A855F7" stop-opacity="0"/>
    </radialGradient>
    <pattern id="dots" width="28" height="28" patternUnits="userSpaceOnUse">
      <circle cx="2" cy="2" r="1.2" fill="#93C5FD" fill-opacity="0.18"/>
    </pattern>
    <filter id="softGlow" x="-80%" y="-80%" width="260%" height="260%">
      <feGaussianBlur stdDeviation="8" result="blur"/>
      <feMerge>
        <feMergeNode in="blur"/>
        <feMergeNode in="SourceGraphic"/>
      </feMerge>
    </filter>
  </defs>

  <rect width="1280" height="360" rx="24" fill="url(#bg)"/>
  <rect width="1280" height="360" rx="24" fill="url(#dots)"/>
  <rect width="1280" height="360" rx="24" fill="url(#cyanGlow)"/>
  <rect width="1280" height="360" rx="24" fill="url(#purpleGlow)"/>

  <path d="M0 311C205 255 321 348 516 300C712 252 841 274 1011 230C1121 201 1205 206 1280 220V360H0V311Z" fill="#0B1324" fill-opacity="0.62"/>
  <path d="M0 310C205 254 321 347 516 299C712 251 841 273 1011 229C1121 200 1205 205 1280 219" stroke="url(#accent)" stroke-opacity="0.55"/>

  <rect x="62" y="54" width="6" height="231" rx="3" fill="url(#accent)" filter="url(#softGlow)"/>
  <text x="94" y="78" fill="#67E8F9" font-family="Inter, Segoe UI, Arial, sans-serif" font-size="14" font-weight="750" letter-spacing="3">RESEARCH  /  BUILD  /  SHIP</text>
  <text x="91" y="151" fill="#FFFFFF" font-family="Inter, Segoe UI, Arial, sans-serif" font-size="58" font-weight="780">Rishii Kumar Singh</text>
  <text x="94" y="198" fill="#DCEBFA" font-family="Inter, Segoe UI, Arial, sans-serif" font-size="22" font-weight="550">AI/ML researcher and full-stack builder</text>
  <text x="94" y="234" fill="#9FB8D0" font-family="Inter, Segoe UI, Arial, sans-serif" font-size="16">Computer Vision  |  LLMs and RAG  |  AI Agents  |  Local AI</text>
  <text x="94" y="273" fill="#C4B5FD" font-family="Inter, Segoe UI, Arial, sans-serif" font-size="15" font-weight="600">Research Intern at AIMS-DTU  |  Ex AI/ML Intern at WESEE, Ministry of Defence</text>

  <g stroke-linecap="round">
    <path d="M932 94L1046 73L1144 126L1096 228L973 250L895 172L932 94Z" stroke="#59DFFC" stroke-opacity="0.45" stroke-width="2"/>
    <path d="M932 94L973 250M1046 73L1096 228M895 172L1144 126M932 94L1096 228M1046 73L895 172" stroke="#8B9CFF" stroke-opacity="0.28"/>
    <circle cx="932" cy="94" r="9" fill="#122B46" stroke="#2DE2E6" stroke-width="3" filter="url(#softGlow)"/>
    <circle cx="1046" cy="73" r="7" fill="#122B46" stroke="#60A5FA" stroke-width="3"/>
    <circle cx="1144" cy="126" r="11" fill="#281B46" stroke="#B06CFF" stroke-width="3" filter="url(#softGlow)"/>
    <circle cx="1096" cy="228" r="8" fill="#281B46" stroke="#A78BFA" stroke-width="3"/>
    <circle cx="973" cy="250" r="10" fill="#122B46" stroke="#22D3EE" stroke-width="3"/>
    <circle cx="895" cy="172" r="7" fill="#122B46" stroke="#38BDF8" stroke-width="3"/>
    <circle cx="1017" cy="158" r="31" fill="#0B1D33" stroke="url(#accent)" stroke-width="3" filter="url(#softGlow)"/>
    <text x="1017" y="164" text-anchor="middle" fill="#F8FAFC" font-family="Inter, Segoe UI, Arial, sans-serif" font-size="17" font-weight="800">AI</text>
  </g>

  <g font-family="Inter, Segoe UI, Arial, sans-serif" font-size="12" font-weight="700">
    <rect x="900" y="291" width="98" height="32" rx="16" fill="#10263D" stroke="#22D3EE" stroke-opacity="0.75"/>
    <text x="925" y="311" fill="#DFFAFF">VISION</text>
    <rect x="1011" y="291" width="88" height="32" rx="16" fill="#16233F" stroke="#60A5FA" stroke-opacity="0.75"/>
    <text x="1035" y="311" fill="#E0EDFF">RAG</text>
    <rect x="1112" y="291" width="104" height="32" rx="16" fill="#281B46" stroke="#B06CFF" stroke-opacity="0.85"/>
    <text x="1134" y="311" fill="#F0E4FF">AGENTS</text>
  </g>

  <rect x="20" y="20" width="1240" height="320" rx="18" stroke="url(#accent)" stroke-opacity="0.22"/>
</svg>
